[Header]
FileType HTR
DataType HTRS
FileVersion 1
NumSegments 48
NumFrames 4
DataFrameRate 30
EulerRotationOrder ZYX
CalibrationUnits mm
RotationUnits Degrees
GlobalAxisofGravity Y
BoneLengthAxis Y
ScaleFactor 1.0
[SegmentNames&Hierarchy]
Wolf	GLOBAL
Becken	Wolf
Bauch	Becken
Bauch_001	Bauch
Brust	Bauch_001
Hals	Brust
Kopf_002	Hals
Kopf	Kopf_002
Unterkiefer	Kopf
Hals_fett	Unterkiefer
Maulunten	Unterkiefer
Mauloben	Kopf
MundW_L	Kopf
MundW_R	Kopf
Augen_con	Kopf
IK_Aug_R	Augen_con
IK_Aug_L	Augen_con
Aug_R	Kopf
aug_L	Kopf
Ohr_L	Kopf
Ohr_R	Kopf
Braun_O_L	Kopf
Braun_O_R	Kopf
aug_lied_O_L	Kopf
aug_lied_O_R	Kopf
aug_lied_U_L	Kopf
aug_lied_U_R	Kopf
Bauch_003	Brust
Schalterplatte_L	Bauch_003
Oberarm_L	Schalterplatte_L
Unterarm_L	Oberarm_L
Vorderpfote_L	Unterarm_L
Schalterplatte_R	Bauch_003
Oberarm_R	Schalterplatte_R
Unterarm_R	Oberarm_R
Vorderpfote_R	Unterarm_R
Schwanz	Becken
Schwanz_001	Schwanz
Schwanz_002	Schwanz_001
Schwanz_003	Schwanz_002
Oberschenkel_L	Becken
Unterschenkel_L	Oberschenkel_L
Pfote1_L	Unterschenkel_L
Pfote2_L	Pfote1_L
Oberschenkel_R	Becken
Unterschenkel_R	Oberschenkel_R
Pfote1_R	Unterschenkel_R
Pfote2_R	Pfote1_R
[BasePosition]
Wolf	0	0	0	0	0	0	1
Becken	0	0	0	0	0	0	1
Bauch	0	0	0	0	0	0	1
Bauch_001	0	0	0	0	0	0	1
Brust	0	0	0	0	0	0	1
Hals	0	0	0	0	0	0	1
Kopf_002	0	0	0	0	0	0	1
Kopf	0	0	0	0	0	0	1
Unterkiefer	0	0	0	0	0	0	1
Hals_fett	0	0	0	0	0	0	1
Maulunten	0	0	0	0	0	0	1
Mauloben	0	0	0	0	0	0	1
MundW_L	0	0	0	0	0	0	1
MundW_R	0	0	0	0	0	0	1
Augen_con	0	0	0	0	0	0	1
IK_Aug_R	0	0	0	0	0	0	1
IK_Aug_L	0	0	0	0	0	0	1
Aug_R	0	0	0	0	0	0	1
aug_L	0	0	0	0	0	0	1
Ohr_L	0	0	0	0	0	0	1
Ohr_R	0	0	0	0	0	0	1
Braun_O_L	0	0	0	0	0	0	1
Braun_O_R	0	0	0	0	0	0	1
aug_lied_O_L	0	0	0	0	0	0	1
aug_lied_O_R	0	0	0	0	0	0	1
aug_lied_U_L	0	0	0	0	0	0	1
aug_lied_U_R	0	0	0	0	0	0	1
Bauch_003	0	0	0	0	0	0	1
Schalterplatte_L	0	0	0	0	0	0	1
Oberarm_L	0	0	0	0	0	0	1
Unterarm_L	0	0	0	0	0	0	1
Vorderpfote_L	0	0	0	0	0	0	1
Schalterplatte_R	0	0	0	0	0	0	1
Oberarm_R	0	0	0	0	0	0	1
Unterarm_R	0	0	0	0	0	0	1
Vorderpfote_R	0	0	0	0	0	0	1
Schwanz	0	0	0	0	0	0	1
Schwanz_001	0	0	0	0	0	0	1
Schwanz_002	0	0	0	0	0	0	1
Schwanz_003	0	0	0	0	0	0	1
Oberschenkel_L	0	0	0	0	0	0	1
Unterschenkel_L	0	0	0	0	0	0	1
Pfote1_L	0	0	0	0	0	0	1
Pfote2_L	0	0	0	0	0	0	1
Oberschenkel_R	0	0	0	0	0	0	1
Unterschenkel_R	0	0	0	0	0	0	1
Pfote1_R	0	0	0	0	0	0	1
Pfote2_R	0	0	0	0	0	0	1
[Wolf]
31	0	0	0	-90	-0	0	1.0
32	0	0	0	-90	-0	0	1.0
33	0	0	0	-90	-0	0	1.0
34	0	0	0	-90	-0	0	1.0
[Becken]
31	0	0.5626298785	0.543690145	8.113015042e-07	169.3773956	90	1.0
32	0	0.5841419101	0.379106164	8.113015042e-07	171.6315613	90	1.0
33	0	0.623341918	0.0793062225	8.113015042e-07	175.7829132	90	1.0
34	0	0.6731539965	-0.2988817692	8.113015042e-07	181.0686188	90	1.0
[Bauch]
31	0.940407455	7.099878729e-08	-0.3559131622	-9.673251498e-07	12.60522652	-1.068382929e-07	1.0
32	0.9342378974	7.099878729e-08	-0.365329206	-9.673251498e-07	14.19599056	-1.068382929e-07	1.0
33	0.9229974747	7.099878729e-08	-0.3824811578	-9.673251498e-07	17.10933876	-1.068382929e-07	1.0
34	0.908826828	7.099878729e-08	-0.4040994644	-9.673251498e-07	20.80109406	-1.068382929e-07	1.0
[Bauch_001]
31	1.081897497	8.168100152e-08	4.656612873e-08	-1.782821641e-07	2.360082865	-3.672270932e-09	1.0
32	1.064128757	8.168100152e-08	-0.002135997638	-1.782821641e-07	1.390868664	-3.672270932e-09	1.0
33	1.031748056	8.168100152e-08	-0.006242746487	-1.782821641e-07	-0.3782374263	-3.672270932e-09	1.0
34	0.9906045198	8.168100152e-08	-0.0110063972	-1.782821641e-07	-2.613656521	-3.672270932e-09	1.0
[Brust]
31	1.069831371	8.077002889e-08	-1.862644972e-08	-1.076636636e-06	15.76275349	-2.124970933e-06	1.0
32	1.060620189	8.077002889e-08	-0.001782599837	-1.076636636e-06	14.3563509	-2.124970933e-06	1.0
33	1.043830276	8.077002889e-08	-0.005363283679	-1.076636636e-06	11.7836647	-2.124970933e-06	1.0
34	1.022666812	8.077002889e-08	-0.009543335065	-1.076636636e-06	8.526843071	-2.124970933e-06	1.0
[Hals]
31	1.258022189	9.497803433e-08	0.6079561114	-4.618911134e-06	46.87746048	-2.002489964e-06	1.0
32	1.244451761	9.497803433e-08	0.590352118	-4.618911134e-06	45.50912857	-2.002489964e-06	1.0
33	1.219721079	9.497803433e-08	0.5582870245	-4.618911134e-06	43.00664902	-2.002489964e-06	1.0
34	1.188297391	9.497803433e-08	0.517542243	-4.618911134e-06	39.83930206	-2.002489964e-06	1.0
[Kopf_002]
31	1.752595305	3.013231981e-05	0.265181601	0.006653485354	-165.1497192	0.002557621105	1.0
32	1.752595305	3.013231981e-05	0.265181601	0.006653485354	-165.1497192	0.002557621105	1.0
33	1.752595305	3.013231981e-05	0.265181601	0.006653485354	-165.1497192	0.002557621105	1.0
34	1.752595305	3.013231981e-05	0.265181601	0.006653485354	-165.1497192	0.002557621105	1.0
[Kopf]
31	1.015781879	7.661583368e-08	5.763315869e-08	0.05724488199	113.2280502	-0.0362011008	1.0
32	1.015781879	7.661583368e-08	5.763315869e-08	0.05573190004	112.3271255	-0.03759730607	1.0
33	1.015781879	7.661583368e-08	5.763315869e-08	0.05257168785	110.6831055	-0.04054550454	1.0
34	1.015781879	7.661583368e-08	5.763315869e-08	0.04784854874	108.6061935	-0.04500214756	1.0
[Unterkiefer]
31	0.637044847	0.00455273781	0.4060620368	5.412722588	-68.3888092	-3.093543291	1.0
32	0.637044847	0.00455273781	0.4060620368	5.412722588	-68.3888092	-3.093543291	1.0
33	0.637044847	0.00455273781	0.4060620368	5.412722588	-68.3888092	-3.093543291	1.0
34	0.637044847	0.00455273781	0.4060620368	5.412722588	-68.3888092	-3.093543291	1.0
[Hals_fett]
31	0.2998302579	0.007747155149	0.1206375211	-5.071650982	-59.35961151	5.585565567	1.0
32	0.2998302579	0.007747155149	0.1206375211	-5.071650982	-59.35961151	5.585565567	1.0
33	0.2998302579	0.007747155149	0.1206375211	-5.071650982	-59.35961151	5.585565567	1.0
34	0.2998302579	0.007747155149	0.1206375211	-5.071650982	-59.35961151	5.585565567	1.0
[Maulunten]
31	0.08317930996	-0.007747315802	-0.120645985	-3.322209358	38.97270584	-0.8718757033	1.0
32	0.08317930996	-0.007747315802	-0.120645985	-3.322209358	38.97270584	-0.8718757033	1.0
33	0.08317930996	-0.007747315802	-0.120645985	-3.322209358	38.97270584	-0.8718757033	1.0
34	0.08317930996	-0.007747315802	-0.120645985	-3.322209358	38.97270584	-0.8718757033	1.0
[Mauloben]
31	0.9101490974	0.0004056774778	0.4003698826	-0.1032676771	-28.7776947	0.03543145955	1.0
32	0.9101490974	0.0004056774778	0.4003698826	-0.1032676771	-28.7776947	0.03543145955	1.0
33	0.9101490974	0.0004056774778	0.4003698826	-0.1032676771	-28.7776947	0.03543145955	1.0
34	0.9101490974	0.0004056774778	0.4003698826	-0.1032676771	-28.7776947	0.03543145955	1.0
[MundW_L]
31	0.673060894	-0.3618556559	0.3751283586	-179.8370972	-17.94885445	24.713974	1.0
32	0.673060894	-0.3618556559	0.3751283586	-179.8370972	-17.94885445	24.713974	1.0
33	0.673060894	-0.3618556559	0.3751283586	-179.8370972	-17.94885445	24.713974	1.0
34	0.673060894	-0.3618556559	0.3751283586	-179.8370972	-17.94885445	24.713974	1.0
[MundW_R]
31	0.6732422113	0.362703532	0.3739836812	179.665329	-18.02427101	-24.69083595	1.0
32	0.6732422113	0.362703532	0.3739836812	179.665329	-18.02427101	-24.69083595	1.0
33	0.6732422113	0.362703532	0.3739836812	179.665329	-18.02427101	-24.69083595	1.0
34	0.6732422113	0.362703532	0.3739836812	179.665329	-18.02427101	-24.69083595	1.0
[Augen_con]
31	1.807373524	-0.0001604080026	0.1835817248	0.09822228551	157.1545258	0.02385942452	1.0
32	1.807373524	-0.0001604080026	0.1835817248	0.09822228551	157.1545258	0.02385942452	1.0
33	1.807373524	-0.0001604080026	0.1835817248	0.09822228551	157.1545258	0.02385942452	1.0
34	1.807373524	-0.0001604080026	0.1835817248	0.09822228551	157.1545258	0.02385942452	1.0
[IK_Aug_R]
31	0.3461307585	0.2943200171	-1.058367616e-07	-0.4194758832	-4.963055134	165.6946411	1.0
32	0.3461307585	0.2943200171	-1.058367616e-07	-0.4194758832	-4.963055134	165.6946411	1.0
33	0.3461307585	0.2943200171	-1.058367616e-07	-0.4194758832	-4.963055134	165.6946411	1.0
34	0.3461307585	0.2943200171	-1.058367616e-07	-0.4194758832	-4.963055134	165.6946411	1.0
[IK_Aug_L]
31	0.3461304903	-0.2943199575	-2.746332939e-08	0.4194765091	-4.963055611	-165.6946411	1.0
32	0.3461304903	-0.2943199575	-2.746332939e-08	0.4194765091	-4.963055611	-165.6946411	1.0
33	0.3461304903	-0.2943199575	-2.746332939e-08	0.4194765091	-4.963055611	-165.6946411	1.0
34	0.3461304903	-0.2943199575	-2.746332939e-08	0.4194765091	-4.963055611	-165.6946411	1.0
[Aug_R]
31	1.035155058	0.2207805961	-0.09605777264	176.004776	-17.29166603	12.85548115	1.0
32	1.035155058	0.2207805961	-0.09605777264	176.004776	-17.29166603	12.85548115	1.0
33	1.035155058	0.2207805961	-0.09605777264	176.004776	-17.29166603	12.85548115	1.0
34	1.035155058	0.2207805961	-0.09605777264	176.004776	-17.29166603	12.85548115	1.0
[aug_L]
31	1.035044312	-0.2215988934	-0.09535890818	-176.1891022	-17.3318119	-12.83103085	1.0
32	1.035044312	-0.2215988934	-0.09535890818	-176.1891022	-17.3318119	-12.83103085	1.0
33	1.035044312	-0.2215988934	-0.09535890818	-176.1891022	-17.3318119	-12.83103085	1.0
34	1.035044312	-0.2215988934	-0.09535890818	-176.1891022	-17.3318119	-12.83103085	1.0
[Ohr_L]
31	0.640776813	-0.365999192	-0.6893324256	-24.34924316	53.07765961	-15.02013206	1.0
32	0.640776813	-0.365999192	-0.6893324256	-24.34924316	53.07765961	-15.02013206	1.0
33	0.640776813	-0.365999192	-0.6893324256	-24.34924316	53.07765961	-15.02013206	1.0
34	0.640776813	-0.365999192	-0.6893324256	-24.34924316	53.07765961	-15.02013206	1.0
[Ohr_R]
31	0.6409582496	0.3634999394	-0.6904847622	24.05786514	53.12416458	14.75857353	1.0
32	0.6409582496	0.3634999394	-0.6904847622	24.05786514	53.12416458	14.75857353	1.0
33	0.6409582496	0.3634999394	-0.6904847622	24.05786514	53.12416458	14.75857353	1.0
34	0.6409582496	0.3634999394	-0.6904847622	24.05786514	53.12416458	14.75857353	1.0
[Braun_O_L]
31	0.9801892042	-0.3706049621	-0.3292512298	-143.317215	-34.69636154	52.39493561	1.0
32	0.9801892042	-0.3706049621	-0.3292512298	-143.317215	-34.69636154	52.39493561	1.0
33	0.9801892042	-0.3706049621	-0.3292512298	-143.317215	-34.69636154	52.39493561	1.0
34	0.9801892042	-0.3706049621	-0.3292512298	-143.317215	-34.69636154	52.39493561	1.0
[Braun_O_R]
31	0.9803638458	0.369074285	-0.3304226696	143.1826782	-34.83971405	-52.3467598	1.0
32	0.9803638458	0.369074285	-0.3304226696	143.1826782	-34.83971405	-52.3467598	1.0
33	0.9803638458	0.369074285	-0.3304226696	143.1826782	-34.83971405	-52.3467598	1.0
34	0.9803638458	0.369074285	-0.3304226696	143.1826782	-34.83971405	-52.3467598	1.0
[aug_lied_O_L]
31	1.038891912	-0.3271433413	-0.1608080417	-175.8613434	-20.1559639	60.31666946	1.0
32	1.038891912	-0.3271433413	-0.1608080417	-175.8613434	-20.1559639	60.31666946	1.0
33	1.038891912	-0.3271433413	-0.1608080417	-175.8613434	-20.1559639	60.31666946	1.0
34	1.038891912	-0.3271433413	-0.1608080417	-175.8613434	-20.1559639	60.31666946	1.0
[aug_lied_O_R]
31	1.039044738	0.3261157572	-0.1618430018	175.7657928	-20.31323814	-60.31218338	1.0
32	1.039044738	0.3261157572	-0.1618430018	175.7657928	-20.31323814	-60.31218338	1.0
33	1.039044738	0.3261157572	-0.1618430018	175.7657928	-20.31323814	-60.31218338	1.0
34	1.039044738	0.3261157572	-0.1618430018	175.7657928	-20.31323814	-60.31218338	1.0
[aug_lied_U_L]
31	1.021916389	-0.3312866092	-0.133848846	-159.8099365	-28.7482872	60.17461395	1.0
32	1.021916389	-0.3312866092	-0.133848846	-159.8099365	-28.7482872	60.17461395	1.0
33	1.021916389	-0.3312866092	-0.133848846	-159.8099365	-28.7482872	60.17461395	1.0
34	1.021916389	-0.3312866092	-0.133848846	-159.8099365	-28.7482872	60.17461395	1.0
[aug_lied_U_R]
31	1.022078514	0.3303526342	-0.134884432	159.7071381	-28.90532303	-60.15359116	1.0
32	1.022078514	0.3303526342	-0.134884432	159.7071381	-28.90532303	-60.15359116	1.0
33	1.022078514	0.3303526342	-0.134884432	159.7071381	-28.90532303	-60.15359116	1.0
34	1.022078514	0.3303526342	-0.134884432	159.7071381	-28.90532303	-60.15359116	1.0
[Bauch_003]
31	1.276869178	9.640096721e-08	-0.607956171	-3.938862392e-06	-137.6799469	1.017604518e-05	1.0
32	1.276869178	9.640096721e-08	-0.607956171	-3.938862392e-06	-137.6799469	1.017604518e-05	1.0
33	1.276869178	9.640096721e-08	-0.607956171	-3.938862392e-06	-137.6799469	1.017604518e-05	1.0
34	1.276869178	9.640096721e-08	-0.607956171	-3.938862392e-06	-137.6799469	1.017604518e-05	1.0
[Schalterplatte_L]
31	0.892570734	-0.3820799589	-2.353006607e-07	1.626050949	68.74590302	-24.06682014	1.0
32	0.892570734	-0.3820799589	-2.353006607e-07	2.997514248	67.6930542	-22.56934929	1.0
33	0.892570734	-0.3820799589	-2.353006607e-07	4.91137886	66.04362488	-20.42878914	1.0
34	0.892570734	-0.3820799589	-2.353006607e-07	6.677275658	64.43245697	-18.37260056	1.0
[Oberarm_L]
31	1.41863656	-1.373700798e-07	-9.313225746e-08	-54.07645035	-56.50159836	57.04972458	1.0
32	1.41863656	-1.373700798e-07	-9.313225746e-08	-53.93530273	-56.40343094	56.85159302	1.0
33	1.41863656	-1.373700798e-07	-9.313225746e-08	-53.80171585	-56.30989075	56.66417694	1.0
34	1.41863656	-1.373700798e-07	-9.313225746e-08	-54.05202103	-56.4750824	57.00182724	1.0
[Unterarm_L]
31	2.028227091	1.303851604e-07	-3.434251994e-07	1.23529911	39.27025986	1.243140101	1.0
32	2.028227091	1.303851604e-07	-3.434251994e-07	1.184828639	38.2050209	1.198762536	1.0
33	2.028227091	1.303851604e-07	-3.434251994e-07	1.126762748	36.6692009	1.148124456	1.0
34	2.028227091	1.303851604e-07	-3.434251994e-07	1.1372931	35.45406723	1.177371502	1.0
[Vorderpfote_L]
31	1.705947638	9.313225746e-08	2.281740308e-07	-4.085536957	80.58357239	-3.093423367	1.0
32	1.705947638	9.313225746e-08	2.281740308e-07	-3.801212788	78.73272705	-2.739480019	1.0
33	1.705947638	9.313225746e-08	2.281740308e-07	-3.516587257	75.58544159	-2.329083443	1.0
34	1.705947638	9.313225746e-08	2.281740308e-07	-3.297161579	72.10142517	-1.951315761	1.0
[Schalterplatte_R]
31	0.892570734	0.3820800483	-2.117341893e-07	1.862316608	67.36043549	31.59178925	1.0
32	0.892570734	0.3820800483	-2.117341893e-07	0.7838950157	66.27464294	30.33496666	1.0
33	0.892570734	0.3820800483	-2.117341893e-07	-0.6741458774	64.56386566	28.59816742	1.0
34	0.892570734	0.3820800483	-2.117341893e-07	-1.975184441	62.87412643	27.03664398	1.0
[Oberarm_R]
31	1.418636322	9.080395103e-08	-2.305023372e-07	58.09552765	-49.73139572	-63.32262802	1.0
32	1.418636322	9.080395103e-08	-2.305023372e-07	57.95323181	-49.60039139	-63.18017197	1.0
33	1.418636322	9.080395103e-08	-2.305023372e-07	57.81109238	-49.41847992	-63.0850296	1.0
34	1.418636322	9.080395103e-08	-2.305023372e-07	58.04686737	-49.3722496	-63.53742599	1.0
[Unterarm_R]
31	2.028232098	7.450580597e-08	-3.958120942e-08	1.444937348	38.72324371	1.999977946	1.0
32	2.028232098	7.450580597e-08	-3.958120942e-08	1.361204028	37.60913467	1.898589969	1.0
33	2.028232098	7.450580597e-08	-3.958120942e-08	1.226198077	35.9891777	1.732191443	1.0
34	2.028232098	7.450580597e-08	-3.958120942e-08	1.068616509	34.68169022	1.537958264	1.0
[Vorderpfote_R]
31	1.705937862	1.210719205e-07	-8.381903172e-08	6.940952778	79.99838257	6.597027302	1.0
32	1.705937862	1.210719205e-07	-8.381903172e-08	5.905759335	78.13324738	5.500805378	1.0
33	1.705937862	1.210719205e-07	-8.381903172e-08	4.769181252	74.95219421	4.253159046	1.0
34	1.705937862	1.210719205e-07	-8.381903172e-08	3.859999418	71.41680908	3.205241442	1.0
[Schwanz]
31	-0.02626179904	-2.110689845e-09	0.1252702773	-2.620213309e-06	-148.7954559	9.3831095e-06	1.0
32	-0.02620284259	-2.110689845e-09	0.1184932813	-2.620213309e-06	-151.3857422	9.3831095e-06	1.0
33	-0.02365429327	-2.110689845e-09	0.1061462983	-2.620213309e-06	-156.1737976	9.3831095e-06	1.0
34	-0.02027588338	-2.110689845e-09	0.09058570862	-2.620213309e-06	-162.2896881	9.3831095e-06	1.0
[Schwanz_001]
31	0.9104328752	6.873576552e-08	-9.313230187e-09	5.759830515e-07	-7.584512711	-3.817856964e-08	1.0
32	0.9104328752	6.873576552e-08	-9.313230187e-09	5.759830515e-07	-8.072778702	-3.817856964e-08	1.0
33	0.9104328752	6.873576552e-08	-9.313230187e-09	5.759830515e-07	-8.962710381	-3.817856964e-08	1.0
34	0.9104328752	6.873576552e-08	-9.313230187e-09	5.759830515e-07	-10.08584595	-3.817856964e-08	1.0
[Schwanz_002]
31	0.7855662107	5.930859004e-08	3.725289943e-08	1.063837431e-06	-13.81674862	-1.28896616e-07	1.0
32	0.7855662107	5.930859004e-08	3.725289943e-08	1.063837431e-06	-12.91716576	-1.28896616e-07	1.0
33	0.7855662107	5.930859004e-08	3.725289943e-08	1.063837431e-06	-11.27560425	-1.28896616e-07	1.0
34	0.7855662107	5.930859004e-08	3.725289943e-08	1.063837431e-06	-9.201818466	-1.28896616e-07	1.0
[Schwanz_003]
31	0.8350355029	6.304340872e-08	-9.313230187e-09	8.881865483e-07	-11.6031208	-9.02429278e-08	1.0
32	0.8350355029	6.304340872e-08	-9.313230187e-09	8.881865483e-07	-11.6031208	-9.02429278e-08	1.0
33	0.8350355029	6.304340872e-08	-9.313230187e-09	8.881865483e-07	-11.6031208	-9.02429278e-08	1.0
34	0.8350355029	6.304340872e-08	-9.313230187e-09	8.881865483e-07	-11.6031208	-9.02429278e-08	1.0
[Oberschenkel_L]
31	0.5429937243	-0.5837000012	0.1141091883	23.49111938	-73.96563721	-18.67188454	1.0
32	0.5146250725	-0.5837000012	0.1140670329	19.397892	-69.19010925	-14.34852982	1.0
33	0.4629331231	-0.5837000012	0.1124854684	16.31526375	-63.37982941	-10.98471355	1.0
34	0.3977225721	-0.5837000012	0.1103907749	14.30320358	-57.89455414	-8.704176903	1.0
[Unterschenkel_L]
31	1.686439037	1.234002411e-07	4.656610209e-09	-8.694709778	-37.05674362	10.71947861	1.0
32	1.686439037	1.234002411e-07	4.656610209e-09	-12.44338417	-52.15018845	14.4013176	1.0
33	1.686439037	1.234002411e-07	4.656610209e-09	-37.76457596	-70.92416382	39.20442581	1.0
34	1.686439037	1.234002411e-07	4.656610209e-09	-25.57796097	-92.78770447	25.9138546	1.0
[Pfote1_L]
31	1.190900445	1.862644972e-08	2.56113708e-08	2.214462042	33.21617126	-6.000761032	1.0
32	1.190900445	1.862644972e-08	2.56113708e-08	1.494320512	42.98206711	-7.130763531	1.0
33	1.190900445	1.862644972e-08	2.56113708e-08	-0.8003220558	56.84486389	-9.960637093	1.0
34	1.190900445	1.862644972e-08	2.56113708e-08	-12.62143803	71.95315552	-22.34464836	1.0
[Pfote2_L]
31	0.9876260757	1.490116119e-07	4.889443872e-08	84.20027161	94.11042023	86.38754272	1.0
32	0.9876260757	1.490116119e-07	4.889443872e-08	106.8837814	94.03788757	110.059639	1.0
33	0.9876260757	1.490116119e-07	4.889443872e-08	140.5200806	95.73532104	145.5447693	1.0
34	0.9876260757	1.490116119e-07	4.889443872e-08	166.0240631	99.71048737	173.6963654	1.0
[Oberschenkel_R]
31	0.5429936647	0.5837000608	0.1141091883	-23.44747734	-73.92929077	18.62651062	1.0
32	0.5146249533	0.5837000608	0.1140670329	-19.19526863	-68.86025238	14.13005257	1.0
33	0.4629330337	0.5837000608	0.1124855056	-15.99032784	-62.48365021	10.61594677	1.0
34	0.3977224827	0.5837000608	0.1103908494	-13.88251495	-56.20609283	8.199170113	1.0
[Unterschenkel_R]
31	1.686449051	1.431908458e-07	-1.396983951e-08	8.701871872	-37.08650589	-10.72692108	1.0
32	1.686449051	1.431908458e-07	-1.396983951e-08	12.63005352	-52.49941254	-13.72622681	1.0
33	1.686449051	1.431908458e-07	-1.396983951e-08	38.84908295	-71.81609344	-38.2567215	1.0
34	1.686449051	1.431908458e-07	-1.396983951e-08	29.83791542	-93.70519257	-26.91138268	1.0
[Pfote1_R]
31	1.190900326	7.101335342e-08	-4.307366908e-08	-2.214530706	33.13505554	6.000650406	1.0
32	1.190900326	7.101335342e-08	-4.307366908e-08	-2.753698349	42.37453842	5.146579742	1.0
33	1.190900326	7.101335342e-08	-4.307366908e-08	-4.256206989	55.01214218	3.246302843	1.0
34	1.190900326	7.101335342e-08	-4.307366908e-08	-9.212619781	68.74167633	-2.121310711	1.0
[Pfote2_R]
31	0.9876257181	1.071020961e-07	3.49246001e-08	-83.19669342	94.1157074	-85.36830139	1.0
32	0.9876257181	1.071020961e-07	3.49246001e-08	-100.5078964	93.51699066	-103.0940552	1.0
33	0.9876257181	1.071020961e-07	3.49246001e-08	-143.2916718	94.04233551	-147.0896301	1.0
34	0.9876257181	1.071020961e-07	3.49246001e-08	-177.7242126	97.04427338	-183.5584106	1.0
[EndOfFile]
